<svg width="0" height="0" class="hidden">
    <symbol fill="none" xmlns="http://www.w3.org/2000/svg" viewBox="0 0 27 27" id="setting">
      <path fill-rule="evenodd" clip-rule="evenodd" d="M13.5 10.2105C15.5308 10.2105 17.1765 11.683 17.1765 13.5C17.1765 15.317 15.5308 16.7895 13.5 16.7895C11.4693 16.7895 9.82355 15.317 9.82355 13.5C9.82355 11.683 11.4693 10.2105 13.5 10.2105Z" stroke="#F7F7F7" stroke-width="1.5" stroke-linecap="round" stroke-linejoin="round"></path>
      <path fill-rule="evenodd" clip-rule="evenodd" d="M25.5118 7.25033C24.5067 5.68157 22.2812 5.14479 20.5419 6.05068C19.0292 6.83701 17.1384 5.85313 17.1384 4.27918C17.1384 2.46867 15.5087 1 13.4997 1C11.4908 1 9.86099 2.46867 9.86099 4.27918C9.86099 5.85313 7.97026 6.83701 6.45882 6.05068C4.71808 5.14479 2.49275 5.68157 1.48754 7.25033C0.483763 8.81908 1.0794 10.8245 2.82013 11.7291C4.33156 12.5167 4.33156 14.4833 2.82013 15.2709C1.0794 16.1767 0.483763 18.1822 1.48754 19.7497C2.49275 21.3184 4.71808 21.8553 6.45738 20.9507H6.45882C7.97026 20.163 9.86099 21.1468 9.86099 22.7208C9.86099 24.5313 11.4908 26 13.4997 26C15.5087 26 17.1384 24.5313 17.1384 22.7208C17.1384 21.1468 19.0292 20.163 20.5419 20.9507C22.2812 21.8553 24.5067 21.3184 25.5118 19.7497C26.517 18.1822 25.9199 16.1767 24.1806 15.2709H24.1792C22.6678 14.4833 22.6678 12.5167 24.1806 11.7291C25.9199 10.8245 26.517 8.81908 25.5118 7.25033Z" stroke="#F7F7F7" stroke-width="1.5" stroke-linecap="round" stroke-linejoin="round"></path>
    </symbol>
</svg>